<svg width="100" height="37" viewBox="0 0 100 37" fill="none" xmlns="http://www.w3.org/2000/svg">
<path d="M10.0663 28.8361C10.0663 30.7832 9.81367 32.3298 9.30842 33.4758C8.80318 34.6219 8.13154 35.4414 7.29359 35.9344C6.4556 36.4273 5.56833 36.6737 4.63175 36.6737C3.86771 36.6737 3.20226 36.5505 2.63539 36.304C2.06852 36.0576 1.63104 35.7187 1.32296 35.2874C1.01488 34.8561 0.86084 34.357 0.86084 33.7901C0.86084 33.2232 1.02104 32.8104 1.34145 32.4776C1.66185 32.1449 2.10549 31.9786 2.67236 31.9786C3.14064 31.9786 3.5165 32.0957 3.79994 32.3298C4.08337 32.5639 4.336 32.9521 4.55781 33.4943C4.82893 33.9873 5.05075 34.3385 5.22325 34.548C5.39579 34.7575 5.60528 34.8622 5.85175 34.8622C6.22145 34.8622 6.49873 34.7205 6.68356 34.437C6.86843 34.1536 6.96084 33.7777 6.96084 33.3095C6.96084 32.8165 6.88076 32.3421 6.72055 31.8861C6.56034 31.4302 6.357 30.9064 6.11056 30.3149C5.86409 29.7234 5.66074 29.021 5.50053 28.2076C5.34032 27.3943 5.26024 26.4084 5.26024 25.2501V14.381C5.26024 13.543 5.22325 12.9207 5.14931 12.514C5.07539 12.1073 4.90287 11.867 4.63175 11.7931C4.36065 11.7191 3.91701 11.7807 3.30084 11.9779V10.9058L10.0663 8.05912V28.8361ZM9.65964 5.48972C10.1526 4.95983 10.399 4.30054 10.399 3.51185C10.399 2.72316 10.1526 2.05771 9.65964 1.51548C9.16673 0.97326 8.50128 0.702148 7.66329 0.702148C6.82529 0.702148 6.14137 0.97326 5.61146 1.51548C5.08155 2.05771 4.81661 2.72316 4.81661 3.51185C4.81661 4.30054 5.08155 4.95983 5.61146 5.48972C6.14137 6.01962 6.82529 6.28458 7.66329 6.28458C8.50128 6.28458 9.16673 6.01962 9.65964 5.48972Z" fill="#FA4028"/>
<path d="M17.5775 29.5758C16.5424 29.5758 15.6366 29.3601 14.8603 28.9288C14.0839 28.4975 13.4554 27.8813 12.9748 27.0803C12.4942 26.2793 12.2539 25.3366 12.2539 24.2521C12.2539 23.0691 12.4511 22.0771 12.8454 21.2761C13.2398 20.475 13.819 19.8034 14.583 19.2612C15.347 18.719 16.2713 18.2753 17.3557 17.9303C18.0458 17.6838 18.7175 17.4559 19.3706 17.2464C20.0237 17.0368 20.6214 16.7719 21.1636 16.4515C21.829 16.0818 22.285 15.6443 22.5315 15.1391C22.778 14.6338 22.9012 13.9992 22.9012 13.2351C22.9012 12.1507 22.6732 11.3127 22.2173 10.7212C21.7613 10.1297 21.0774 9.8339 20.1654 9.8339C19.4753 9.8339 18.9454 9.98182 18.5757 10.2776C18.206 10.5733 17.9473 10.9923 17.7994 11.5345C17.6515 12.0767 17.5036 12.6806 17.3557 13.346C17.2818 14.0115 17.0846 14.5476 16.7642 14.9542C16.4438 15.3609 15.8893 15.5643 15.1006 15.5643C14.3858 15.5643 13.8313 15.3486 13.4369 14.9173C13.0426 14.486 12.8454 13.9375 12.8454 13.2721C12.8454 12.3355 13.1658 11.4791 13.8066 10.7027C14.4474 9.92636 15.347 9.30404 16.5054 8.83574C17.6638 8.36745 19.0194 8.1333 20.5721 8.1333C21.9276 8.1333 23.1169 8.34897 24.1397 8.78028C25.1625 9.21158 25.9635 9.88937 26.5427 10.8136C27.1219 11.7378 27.4115 12.9271 27.4115 14.3812V25.2503C27.4115 25.7186 27.4916 26.0698 27.6518 26.3039C27.812 26.5381 28.0646 26.6552 28.4097 26.6552C28.6808 26.6552 28.9211 26.5689 29.1306 26.3964C29.3401 26.2239 29.5311 26.0267 29.7036 25.8048L30.3321 26.5073C30.1349 26.9016 29.8762 27.3329 29.5558 27.8012C29.2353 28.2695 28.7917 28.67 28.2249 29.0027C27.658 29.3355 26.9679 29.5018 26.1545 29.5018C25.3412 29.5018 24.7127 29.3416 24.1951 29.0212C23.6776 28.7008 23.2955 28.2634 23.0491 27.7088C22.8026 27.1543 22.6794 26.5442 22.6794 25.8788V17.1539C22.5562 17.2772 22.4144 17.4374 22.2542 17.6345C22.094 17.8317 21.866 18.0289 21.5703 18.2261C21.2745 18.3986 21.0157 18.5526 20.7939 18.6882C20.5721 18.8237 20.3379 18.9531 20.0915 19.0763C19.845 19.1996 19.5246 19.3844 19.1303 19.6309C18.662 19.902 18.2553 20.2039 17.9103 20.5366C17.5652 20.8694 17.3126 21.2514 17.1524 21.6827C16.9922 22.114 16.9121 22.6255 16.9121 23.217C16.9121 24.3507 17.1832 25.1949 17.7254 25.7494C18.2676 26.3039 18.9085 26.5812 19.6479 26.5812C20.3873 26.5812 21.0404 26.3594 21.5333 25.9158C22.0262 25.4721 22.4699 24.9299 22.8642 24.2891L23.0491 25.8788C22.778 26.421 22.4021 26.9756 21.9215 27.5424C21.4409 28.1093 20.8494 28.5899 20.147 28.9843C19.4445 29.3786 18.5881 29.5758 17.5775 29.5758Z" fill="#FA4028"/>
<path d="M46.506 36.3409V35.2688C47.0731 35.2688 47.5044 35.1641 47.8001 34.9545C48.0957 34.7451 48.2438 34.172 48.2438 33.2355V14.3809C48.2438 13.5429 48.2067 12.9206 48.1329 12.5139C48.059 12.1073 47.8927 11.8669 47.6337 11.793C47.3751 11.719 46.9374 11.7807 46.3213 11.9779V10.9057L53.0129 8.05908V33.2355C53.0129 33.8763 53.0808 34.3384 53.2164 34.6218C53.3517 34.9053 53.5859 35.084 53.9187 35.1579C54.2515 35.2318 54.7136 35.2688 55.3049 35.2688V36.3409H46.506ZM54.196 29.1318C53.5305 28.91 52.9327 28.5896 52.4028 28.1706C51.8729 27.7516 51.3737 27.308 50.9057 26.8397L53.0129 22.5512C53.0129 23.5863 53.1793 24.4983 53.5121 25.287C53.8449 26.0757 54.3193 26.698 54.9354 27.1539C55.5515 27.6099 56.2538 27.8379 57.0427 27.8379C57.7326 27.8379 58.3734 27.6161 58.9652 27.1724C59.5565 26.7288 60.025 25.9771 60.3697 24.9173C60.7149 23.8575 60.8873 22.4773 60.8873 20.7767C60.8873 18.7556 60.7273 17.0366 60.4068 15.6194C60.0864 14.2022 59.6303 13.1177 59.039 12.366C58.4476 11.6143 57.6835 11.2385 56.747 11.2385C56.2295 11.2385 55.7303 11.3494 55.2495 11.5712C54.769 11.793 54.307 12.1257 53.8633 12.5694C53.4195 13.013 53.0377 13.5552 52.7173 14.196L52.2364 13.013C52.6311 12.1504 53.1362 11.3494 53.7523 10.61C54.3684 9.87057 55.1018 9.27291 55.9521 8.81695C56.8025 8.36098 57.7697 8.13302 58.8543 8.13302C60.185 8.13302 61.3805 8.515 62.4403 9.27906C63.5001 10.0431 64.3257 11.1522 64.917 12.6064C65.5088 14.0605 65.8045 15.8474 65.8045 17.967C65.8045 20.4316 65.3978 22.5081 64.5846 24.1964C63.771 25.8846 62.6681 27.1847 61.2755 28.0967C59.8829 29.0086 58.2872 29.4645 56.488 29.4645C55.6253 29.4645 54.8612 29.3536 54.196 29.1318Z" fill="#FA4028"/>
<path d="M76.2422 29.4646C74.3692 29.4646 72.7859 29.0087 71.4919 28.0968C70.1978 27.1849 69.2059 25.9525 68.5155 24.3998C67.8256 22.8471 67.4805 21.1095 67.4805 19.1871C67.4805 17.6343 67.6964 16.1925 68.1277 14.8616C68.559 13.5307 69.1751 12.3661 69.976 11.368C70.7772 10.3698 71.7137 9.5934 72.7859 9.03888C73.8577 8.48431 75.0596 8.20703 76.3903 8.20703C77.9429 8.20703 79.274 8.56444 80.3829 9.27917C81.4922 9.9939 82.3609 11.0291 82.9893 12.3846C83.6178 13.7402 83.9322 15.4038 83.9322 17.3755H70.438V15.7119H79.0889C78.9903 13.7402 78.6456 12.2675 78.0538 11.294C77.4625 10.3205 76.686 9.83374 75.7247 9.83374C75.1581 9.83374 74.6035 10.037 74.0612 10.4437C73.5189 10.8504 73.0692 11.5343 72.7117 12.4955C72.3546 13.4568 72.1758 14.763 72.1758 16.4143C72.1758 18.3614 72.4036 20.0374 72.8597 21.4422C73.3158 22.8471 73.9874 23.9254 74.8744 24.6771C75.7618 25.4288 76.834 25.8046 78.0909 25.8046C79.2493 25.8046 80.2229 25.4843 81.0114 24.8434C81.8003 24.2026 82.4287 23.266 82.8968 22.0337L84.0432 22.4774C83.7718 23.759 83.3098 24.9297 82.6566 25.9895C82.0034 27.0493 81.153 27.8935 80.1056 28.5219C79.0582 29.1504 77.7705 29.4646 76.2422 29.4646Z" fill="#FA4028"/>
<path d="M94.4558 29.1317H85.6569V28.0226C86.1501 28.0226 86.5444 27.924 86.84 27.7269C87.1357 27.5297 87.2837 26.9628 87.2837 26.0263V14.4917C87.2837 13.6291 87.259 12.9883 87.2099 12.5693C87.1604 12.1503 87.0004 11.9038 86.7291 11.8299C86.4582 11.7559 86.0268 11.8175 85.4351 12.0147V10.9056L92.1267 8.02197V26.0263C92.1267 26.6917 92.1881 27.16 92.3114 27.4311C92.4347 27.7022 92.669 27.8686 93.0141 27.9302C93.3589 27.9918 93.8397 28.0226 94.4558 28.0226V29.1317ZM94.4187 11.9777C94.123 11.9777 93.8273 12.1379 93.5317 12.4584C93.236 12.7787 92.9399 13.2039 92.6442 13.7338C92.3486 14.2637 92.0653 14.8491 91.7939 15.4899L91.3135 14.0111C91.5844 13.321 91.8989 12.637 92.256 11.9593C92.6135 11.2815 93.0508 10.6592 93.5684 10.0923C94.0863 9.52542 94.6162 9.05712 95.1581 8.68742C95.7004 8.31773 96.2921 8.1329 96.933 8.1329C97.7952 8.1329 98.4672 8.38552 98.9476 8.89077C99.4285 9.39601 99.6687 10.1169 99.6687 11.0535C99.6687 11.8915 99.4716 12.5508 99.0769 13.0314C98.6827 13.512 98.1404 13.7523 97.4505 13.7523C97.0068 13.7523 96.6492 13.666 96.3783 13.4935C96.107 13.321 95.8731 13.1115 95.676 12.865C95.4785 12.6186 95.2814 12.409 95.0843 12.2365C94.8872 12.064 94.6653 11.9777 94.4187 11.9777Z" fill="#FA4028"/>
<path d="M41.355 25.0836C41.355 24.64 41.2687 24.2209 41.0963 23.8266C40.9237 23.4323 40.628 23.0318 40.209 22.6251C39.79 22.2184 39.2108 21.8056 38.4714 21.3866L35.5878 19.6121C34.5033 18.9219 33.616 18.1086 32.9259 17.1721C32.2358 16.2355 31.8908 15.0771 31.8908 13.6969C31.8908 12.5878 32.1557 11.6266 32.6856 10.8132C33.2155 9.99992 33.9364 9.3776 34.8483 8.94629C35.7603 8.51495 36.7954 8.29932 37.9538 8.29932C38.7425 8.29932 39.3956 8.38559 39.9132 8.55808C40.4308 8.73062 40.8682 8.90316 41.2256 9.07566C41.583 9.24819 41.8603 9.33446 42.0575 9.33446C42.2793 9.33446 42.4456 9.26667 42.5566 9.13112C42.6674 8.99557 42.7352 8.81689 42.7599 8.59507H44.1278V14.3254H42.612C42.4641 13.4628 42.1807 12.711 41.7617 12.0702C41.3427 11.4294 40.8005 10.9427 40.135 10.6099C39.4696 10.2772 38.6932 10.1108 37.8059 10.1108C37.1898 10.1108 36.6783 10.2895 36.2717 10.6469C35.865 11.0043 35.6617 11.5034 35.6617 12.1442C35.6617 12.8835 35.8835 13.4936 36.3272 13.9742C36.7708 14.4548 37.4609 14.9908 38.3975 15.5823L41.2811 17.3569C42.1191 17.8498 42.8523 18.4105 43.4808 19.039C44.1095 19.6675 44.5958 20.3576 44.941 21.1093C45.2862 21.861 45.4585 22.6929 45.4585 23.6048C45.4585 24.64 45.1876 25.6012 44.6453 26.4884C44.1031 27.3757 43.3206 28.0843 42.2978 28.6142C41.2749 29.1441 40.0611 29.4091 38.6562 29.4091C37.7443 29.4091 36.9618 29.2981 36.3086 29.0763C35.6555 28.8545 35.1318 28.6265 34.7374 28.3924C34.3431 28.1582 34.0473 28.0412 33.8502 28.0412C33.5544 28.0412 33.3511 28.1706 33.2402 28.4293C33.1293 28.6881 33.0615 28.9284 33.0368 29.1502H31.6689V22.3848H33.1847C33.2587 23.4692 33.5482 24.3935 34.0535 25.1575C34.5588 25.9215 35.1872 26.5192 35.9389 26.9505C36.6907 27.3818 37.5102 27.5975 38.3975 27.5975C39.3587 27.5975 40.0919 27.3942 40.5972 26.9875C41.1024 26.5808 41.355 25.9462 41.355 25.0836Z" fill="#FA4028"/>
</svg>
